<svg width="28" height="23" viewBox="0 0 28 23" fill="none" xmlns="http://www.w3.org/2000/svg">
<path d="M8.00001 12.3538C7.99811 13.4877 8.29993 14.6002 8.87227 15.569C9.44461 16.5378 10.2653 17.3253 11.2442 17.8451C12.223 18.3649 13.3221 18.5968 14.4207 18.5152C15.5192 18.4337 16.5747 18.0419 17.471 17.383L22.586 22.649L24 21.1932L18.885 15.9272C19.4319 15.1352 19.7894 14.2214 19.9285 13.2603C20.0676 12.2991 19.9844 11.3177 19.6856 10.3959C19.3868 9.47414 18.8809 8.63797 18.209 7.95545C17.5371 7.27292 16.7182 6.76332 15.8189 6.46809C14.9197 6.17286 13.9654 6.10035 13.0337 6.25644C12.1021 6.41253 11.2194 6.79282 10.4574 7.36639C9.69547 7.93995 9.07578 8.69058 8.64877 9.55721C8.22175 10.4239 7.99947 11.382 8.00001 12.3538ZM10 12.3538C10 11.5393 10.2346 10.7431 10.6741 10.0659C11.1137 9.3887 11.7384 8.86087 12.4693 8.54919C13.2002 8.2375 14.0044 8.15595 14.7804 8.31485C15.5563 8.47374 16.269 8.86595 16.8284 9.44187C17.3878 10.0178 17.7688 10.7516 17.9232 11.5504C18.0775 12.3492 17.9983 13.1772 17.6955 13.9297C17.3928 14.6822 16.8801 15.3253 16.2223 15.7778C15.5645 16.2303 14.7911 16.4719 14 16.4719C12.9395 16.4705 11.9229 16.0362 11.173 15.2642C10.4232 14.4922 10.0013 13.4456 10 12.3538Z" fill="#84A9C0"/>
<path d="M27 3.08855H20.54L18.83 0.463283C18.7397 0.321339 18.6166 0.204699 18.4718 0.123836C18.3269 0.0429735 18.1648 0.000420855 18 0H10C9.83521 0.000420855 9.6731 0.0429735 9.52823 0.123836C9.38336 0.204699 9.26026 0.321339 9.17 0.463283L7.46 3.08855H1C0.735027 3.08937 0.481133 3.1981 0.293767 3.39099C0.106402 3.58389 0.000791363 3.84528 0 4.11807V21.6199C0.000791363 21.8927 0.106402 22.1541 0.293767 22.347C0.481133 22.5399 0.735027 22.6486 1 22.6494H10V20.5904H2V5.14759H8C8.16479 5.14717 8.3269 5.10462 8.47177 5.02375C8.61664 4.94289 8.73974 4.82625 8.83 4.68431L10.54 2.05904H17.46L19.17 4.68431C19.2603 4.82625 19.3834 4.94289 19.5282 5.02375C19.6731 5.10462 19.8352 5.14717 20 5.14759H26V17.5018H28V4.11807C27.9992 3.84528 27.8936 3.58389 27.7062 3.39099C27.5189 3.1981 27.265 3.08937 27 3.08855Z" fill="#84A9C0"/>
</svg>
