<svg width="29" height="27" viewBox="0 0 29 27" fill="none" xmlns="http://www.w3.org/2000/svg">
<path d="M2.42434 4.51753C2.7302 3.27861 3.71117 2.3197 4.95672 2.0421L5.15148 1.99869C6.27735 1.74776 7.44466 1.74776 8.57053 1.99869L8.76529 2.04209C10.0108 2.3197 10.9918 3.27861 11.2977 4.51753C11.5764 5.64649 11.5764 6.82628 11.2977 7.95524C10.9918 9.19416 10.0108 10.1531 8.76529 10.4307L8.57053 10.4741C7.44466 10.725 6.27735 10.725 5.15148 10.4741L4.95672 10.4307C3.71117 10.1531 2.7302 9.19416 2.42434 7.95524C2.14563 6.82628 2.14563 5.64648 2.42434 4.51753Z" fill="white" stroke="white" stroke-width="3"/>
<path d="M2.42434 4.51753C2.7302 3.27861 3.71117 2.3197 4.95672 2.0421L5.15148 1.99869C6.27735 1.74776 7.44466 1.74776 8.57053 1.99869L8.76529 2.04209C10.0108 2.3197 10.9918 3.27861 11.2977 4.51753C11.5764 5.64649 11.5764 6.82628 11.2977 7.95524C10.9918 9.19416 10.0108 10.1531 8.76529 10.4307L8.57053 10.4741C7.44466 10.725 6.27735 10.725 5.15148 10.4741L4.95672 10.4307C3.71117 10.1531 2.7302 9.19416 2.42434 7.95524C2.14563 6.82628 2.14563 5.64648 2.42434 4.51753Z" fill="white" stroke="white" stroke-width="3"/>
<path d="M2.42434 19.0339C2.7302 17.795 3.71117 16.8361 4.95672 16.5585L5.15148 16.515C6.27735 16.2641 7.44466 16.2641 8.57053 16.515L8.76529 16.5585C10.0108 16.8361 10.9918 17.795 11.2977 19.0339C11.5764 20.1628 11.5764 21.3426 11.2977 22.4716C10.9918 23.7105 10.0108 24.6694 8.76529 24.947L8.57053 24.9904C7.44466 25.2414 6.27735 25.2414 5.15148 24.9904L4.95672 24.947C3.71117 24.6694 2.7302 23.7105 2.42434 22.4716C2.14563 21.3426 2.14563 20.1628 2.42434 19.0339Z" fill="white" stroke="white" stroke-width="3"/>
<path d="M17.7017 4.51753C18.0075 3.27861 18.9885 2.3197 20.2341 2.0421L20.4288 1.99869C21.5547 1.74776 22.722 1.74776 23.8479 1.99869L24.0426 2.04209C25.2882 2.3197 26.2692 3.27861 26.575 4.51753C26.8537 5.64649 26.8537 6.82628 26.575 7.95524C26.2692 9.19416 25.2882 10.1531 24.0426 10.4307L23.8479 10.4741C22.722 10.725 21.5547 10.725 20.4288 10.4741L20.2341 10.4307C18.9885 10.1531 18.0075 9.19416 17.7017 7.95524C17.423 6.82628 17.423 5.64648 17.7017 4.51753Z" fill="white" stroke="white" stroke-width="3"/>
<path d="M17.7017 19.0339C18.0075 17.795 18.9885 16.8361 20.2341 16.5585L20.4288 16.515C21.5547 16.2641 22.722 16.2641 23.8479 16.515L24.0426 16.5585C25.2882 16.8361 26.2692 17.795 26.575 19.0339C26.8537 20.1628 26.8537 21.3426 26.575 22.4716C26.2692 23.7105 25.2882 24.6694 24.0426 24.947L23.8479 24.9904C22.722 25.2414 21.5547 25.2414 20.4288 24.9904L20.2341 24.947C18.9885 24.6694 18.0075 23.7105 17.7017 22.4716C17.423 21.3426 17.423 20.1628 17.7017 19.0339Z" fill="white" stroke="white" stroke-width="3"/>
</svg>
