<svg width="23" height="23" viewBox="0 0 23 23" fill="none" xmlns="http://www.w3.org/2000/svg">
<path d="M20.125 1.50003C20.5062 1.50003 20.8719 1.65807 21.1415 1.93938C21.411 2.22069 21.5625 2.60223 21.5625 3.00006V15.0003C21.5625 15.3982 21.411 15.7797 21.1415 16.061C20.8719 16.3423 20.5062 16.5004 20.125 16.5004H16.5312C16.0849 16.5004 15.6447 16.6088 15.2455 16.8171C14.8463 17.0254 14.499 17.3278 14.2312 17.7004L11.5 21.5L8.76875 17.7004C8.50095 17.3278 8.1537 17.0254 7.75449 16.8171C7.35528 16.6088 6.91508 16.5004 6.46875 16.5004H2.875C2.49375 16.5004 2.12812 16.3423 1.85853 16.061C1.58895 15.7797 1.4375 15.3982 1.4375 15.0003V3.00006C1.4375 2.60223 1.58895 2.22069 1.85853 1.93938C2.12812 1.65807 2.49375 1.50003 2.875 1.50003H20.125ZM2.875 0C2.1125 0 1.38124 0.316077 0.842068 0.878699C0.302901 1.44132 0 2.2044 0 3.00006L0 15.0003C0 15.796 0.302901 16.5591 0.842068 17.1217C1.38124 17.6843 2.1125 18.0004 2.875 18.0004H6.46875C6.69191 18.0004 6.91201 18.0546 7.11162 18.1588C7.31122 18.2629 7.48485 18.4141 7.61875 18.6004L10.35 22.4C10.4839 22.5863 10.6575 22.7375 10.8571 22.8416C11.0567 22.9458 11.2768 23 11.5 23C11.7232 23 11.9433 22.9458 12.1429 22.8416C12.3425 22.7375 12.5161 22.5863 12.65 22.4L15.3812 18.6004C15.5151 18.4141 15.6888 18.2629 15.8884 18.1588C16.088 18.0546 16.3081 18.0004 16.5312 18.0004H20.125C20.8875 18.0004 21.6188 17.6843 22.1579 17.1217C22.6971 16.5591 23 15.796 23 15.0003V3.00006C23 2.2044 22.6971 1.44132 22.1579 0.878699C21.6188 0.316077 20.8875 0 20.125 0L2.875 0Z" fill="#EE4927"/>
<path d="M4.3125 5.25026C4.3125 5.05134 4.38823 4.86057 4.52302 4.71992C4.65781 4.57926 4.84063 4.50024 5.03125 4.50024H17.9688C18.1594 4.50024 18.3422 4.57926 18.477 4.71992C18.6118 4.86057 18.6875 5.05134 18.6875 5.25026C18.6875 5.44918 18.6118 5.63995 18.477 5.7806C18.3422 5.92126 18.1594 6.00028 17.9688 6.00028H5.03125C4.84063 6.00028 4.65781 5.92126 4.52302 5.7806C4.38823 5.63995 4.3125 5.44918 4.3125 5.25026ZM4.3125 9.00034C4.3125 8.80143 4.38823 8.61066 4.52302 8.47C4.65781 8.32934 4.84063 8.25033 5.03125 8.25033H17.9688C18.1594 8.25033 18.3422 8.32934 18.477 8.47C18.6118 8.61066 18.6875 8.80143 18.6875 9.00034C18.6875 9.19926 18.6118 9.39003 18.477 9.53068C18.3422 9.67134 18.1594 9.75036 17.9688 9.75036H5.03125C4.84063 9.75036 4.65781 9.67134 4.52302 9.53068C4.38823 9.39003 4.3125 9.19926 4.3125 9.00034ZM4.3125 12.7504C4.3125 12.5515 4.38823 12.3607 4.52302 12.2201C4.65781 12.0794 4.84063 12.0004 5.03125 12.0004H12.2188C12.4094 12.0004 12.5922 12.0794 12.727 12.2201C12.8618 12.3607 12.9375 12.5515 12.9375 12.7504C12.9375 12.9493 12.8618 13.1401 12.727 13.2808C12.5922 13.4214 12.4094 13.5004 12.2188 13.5004H5.03125C4.84063 13.5004 4.65781 13.4214 4.52302 13.2808C4.38823 13.1401 4.3125 12.9493 4.3125 12.7504Z" fill="#EE4927"/>
</svg>
