<svg width="26" height="26" viewBox="0 0 26 26" fill="none" xmlns="http://www.w3.org/2000/svg">
<path d="M9.70835 22.9509V19.5887C9.70833 18.7336 10.4447 18.0387 11.357 18.033H14.6987C15.6154 18.033 16.3585 18.7295 16.3585 19.5887V19.5887V22.9613C16.3583 23.6874 16.9765 24.2808 17.7509 24.2978H19.9787C22.1996 24.2978 24 22.6102 24 20.5285V20.5285V10.9641C23.9881 10.1452 23.5779 9.37613 22.8861 8.87586L15.2668 3.12265C13.932 2.1209 12.0346 2.1209 10.6997 3.12265L3.11392 8.8863C2.41946 9.38454 2.00855 10.1549 2 10.9746V20.5285C2 22.6102 3.80038 24.2978 6.02127 24.2978H8.24911C9.04273 24.2978 9.68608 23.6948 9.68608 22.9509V22.9509" stroke="white" stroke-width="3" stroke-linecap="round" stroke-linejoin="round"/>
</svg>
