<svg width="26" height="29" viewBox="0 0 26 29" fill="none" xmlns="http://www.w3.org/2000/svg">
<path d="M3.44448 9.44888L4.40516 9.72653L4.40516 9.72653L3.44448 9.44888ZM10.0534 2.95334L9.76264 1.99654V1.99654L10.0534 2.95334ZM3.37275 9.69706L2.41207 9.41941L2.41207 9.41941L3.37275 9.69706ZM3.0633 15.8012L2.07957 15.9808L3.0633 15.8012ZM3.09931 15.9983L2.11558 16.178L2.11558 16.178L3.09931 15.9983ZM3.86014 22.6857L3.67255 23.668H3.67255L3.86014 22.6857ZM4.4483 22.7981L4.63589 21.8158H4.63589L4.4483 22.7981ZM21.5517 22.7981L21.3641 21.8158H21.3641L21.5517 22.7981ZM22.1399 22.6857L22.3275 23.668L22.1399 22.6857ZM22.9076 15.9605L23.8913 16.1402L23.8913 16.1402L22.9076 15.9605ZM22.9458 15.7514L21.9621 15.5717L21.9621 15.5717L22.9458 15.7514ZM22.6667 9.73937L23.6297 9.46986L22.6667 9.73937ZM22.5669 9.38252L21.6039 9.65202V9.65202L22.5669 9.38252ZM16.1473 2.96256L16.4431 2.0073L16.1473 2.96256ZM23.1648 16.4512L23.6294 15.5656L23.1648 16.4512ZM2.86875 16.4338L3.32408 17.3241L2.86875 16.4338ZM14 1C14 0.447715 13.5523 0 13 0C12.4477 0 12 0.447715 12 1H14ZM12 2.50711C12 3.05939 12.4477 3.50711 13 3.50711C13.5523 3.50711 14 3.05939 14 2.50711H12ZM8.21456 23.3551L8.31938 22.3606L7.12461 22.2347L7.21756 23.4325L8.21456 23.3551ZM17.7854 23.3551L18.7824 23.4325L18.8754 22.2347L17.6806 22.3606L17.7854 23.3551ZM17.6402 24.2158L16.673 23.9621L16.673 23.9621L17.6402 24.2158ZM17.5091 24.7159L18.4764 24.9696V24.9696L17.5091 24.7159ZM14.1262 27.8755L14.345 28.8512L14.1262 27.8755ZM11.8738 27.8755L11.655 28.8512H11.655L11.8738 27.8755ZM8.49091 24.7158L7.52363 24.9695H7.52363L8.49091 24.7158ZM8.35977 24.2158L9.32705 23.9621L8.35977 24.2158ZM4.40516 9.72653C5.19132 7.00639 7.43055 4.79557 10.3442 3.91013L9.76264 1.99654C6.24949 3.06417 3.47147 5.75382 2.48379 9.17123L4.40516 9.72653ZM4.33343 9.97471L4.40516 9.72653L2.48379 9.17123L2.41207 9.41941L4.33343 9.97471ZM4.04703 15.6215C3.70386 13.7425 3.80141 11.8155 4.33343 9.97471L2.41207 9.41941C1.79437 11.5567 1.68067 13.7967 2.07957 15.9808L4.04703 15.6215ZM4.08303 15.8187L4.04703 15.6215L2.07957 15.9808L2.11558 16.178L4.08303 15.8187ZM2 19.3906C2 18.5259 2.51129 17.7398 3.32408 17.3241L2.41343 15.5435C1.00006 16.2663 0 17.7014 0 19.3906H2ZM4.04774 21.7035C2.81407 21.4679 2 20.4694 2 19.3906H0C0 21.5105 1.57808 23.268 3.67255 23.668L4.04774 21.7035ZM4.63589 21.8158L4.04774 21.7035L3.67255 23.668L4.2607 23.7803L4.63589 21.8158ZM21.3641 21.8158C15.8443 22.87 10.1557 22.87 4.63589 21.8158L4.2607 23.7803C10.0284 24.8819 15.9716 24.8819 21.7393 23.7803L21.3641 21.8158ZM21.9523 21.7035L21.3641 21.8158L21.7393 23.7803L22.3275 23.668L21.9523 21.7035ZM24 19.3906C24 20.4694 23.1859 21.4679 21.9523 21.7035L22.3275 23.668C24.4219 23.268 26 21.5105 26 19.3906H24ZM22.7002 17.3367C23.499 17.7558 24 18.5345 24 19.3906H26C26 17.7186 25.0199 16.2951 23.6294 15.5656L22.7002 17.3367ZM21.9621 15.5717L21.9239 15.7809L23.8913 16.1402L23.9295 15.931L21.9621 15.5717ZM21.7037 10.0089C22.212 11.8251 22.2999 13.7217 21.9621 15.5717L23.9295 15.9311C24.3221 13.7816 24.2197 11.5778 23.6297 9.46986L21.7037 10.0089ZM21.6039 9.65202L21.7037 10.0089L23.6297 9.46986L23.5299 9.11302L21.6039 9.65202ZM15.8515 3.91782C18.7036 4.80087 20.854 6.97254 21.6039 9.65202L23.5299 9.11302C22.5859 5.73997 19.9038 3.07883 16.4431 2.0073L15.8515 3.91782ZM10.3442 3.91013C12.13 3.36743 14.0732 3.36722 15.8515 3.91782L16.4431 2.0073C14.2786 1.33712 11.9267 1.3389 9.76264 1.99654L10.3442 3.91013ZM23.6294 15.5656C23.7791 15.6441 23.9441 15.8515 23.8913 16.1402L21.9239 15.7809C21.7992 16.4638 22.1796 17.0636 22.7002 17.3367L23.6294 15.5656ZM2.11558 16.178C2.0587 15.8666 2.23681 15.6338 2.41343 15.5435L3.32408 17.3241C3.83329 17.0637 4.20407 16.4814 4.08303 15.8187L2.11558 16.178ZM12 1V2.50711H14V1H12ZM8.10975 24.3496C11.3598 24.6921 14.6402 24.6921 17.8903 24.3496L17.6806 22.3606C14.57 22.6885 11.43 22.6885 8.31938 22.3606L8.10975 24.3496ZM18.6075 24.4695C18.6968 24.1291 18.7553 23.7822 18.7824 23.4325L16.7884 23.2777C16.7706 23.5081 16.732 23.737 16.673 23.9621L18.6075 24.4695ZM18.4764 24.9696L18.6075 24.4695L16.673 23.9621L16.5418 24.4622L18.4764 24.9696ZM14.345 28.8512C16.3515 28.4012 17.9643 26.9219 18.4764 24.9696L16.5418 24.4621C16.2321 25.643 15.2341 26.6022 13.9074 26.8997L14.345 28.8512ZM11.655 28.8512C12.5395 29.0496 13.4605 29.0496 14.345 28.8512L13.9074 26.8997C13.311 27.0334 12.689 27.0334 12.0926 26.8997L11.655 28.8512ZM7.52363 24.9695C8.03571 26.9219 9.64847 28.4012 11.655 28.8512L12.0926 26.8997C10.7659 26.6022 9.76791 25.643 9.4582 24.4621L7.52363 24.9695ZM7.39248 24.4695L7.52363 24.9695L9.4582 24.4621L9.32705 23.9621L7.39248 24.4695ZM7.21756 23.4325C7.2447 23.7822 7.30321 24.1291 7.39248 24.4695L9.32705 23.9621C9.268 23.737 9.22944 23.5081 9.21157 23.2777L7.21756 23.4325Z" fill="#84A9C0"/>
</svg>
