<svg width="26" height="26" viewBox="0 0 26 26" fill="none" xmlns="http://www.w3.org/2000/svg">
<path d="M2 21.9973C2 19.0578 4.66722 16.5541 8.29206 16.0908L8.61857 16.0491C11.5212 15.6781 14.4788 15.6781 17.3814 16.0491L17.7079 16.0908C21.3328 16.5541 24 19.0578 24 21.9973C24 23.2678 22.7138 24.2978 21.1272 24.2978H4.87277C3.28618 24.2978 2 23.2678 2 21.9973Z" stroke="#FFFEFB" stroke-width="3"/>
<path d="M19.4167 7.16775C19.4167 9.81674 16.5439 11.9642 13 11.9642C9.4562 11.9642 6.58337 9.81674 6.58337 7.16775C6.58337 4.51877 9.4562 2.37134 13 2.37134C16.5439 2.37134 19.4167 4.51877 19.4167 7.16775Z" stroke="#FFFEFB" stroke-width="3"/>
</svg>
