<svg width="33" height="29" viewBox="0 0 33 29" fill="none" xmlns="http://www.w3.org/2000/svg">
<path d="M30.5321 6.70608C25.5957 -0.000221686 15.5172 -1.99399 7.70122 2.1748C0.0909388 6.34358 -2.37726 15.4061 2.55914 22.1124L2.9705 22.6562L1.32504 28.0937L7.49553 26.6437L8.11259 27.0062C10.7865 28.275 13.666 29 16.5456 29C19.6308 29 22.7161 28.275 25.39 26.825C33.0003 22.4749 35.2628 13.5936 30.5321 6.70608ZM26.2127 20.6624C25.39 21.7499 24.3616 22.475 22.9218 22.6562C22.099 22.6562 21.0706 23.0187 16.957 21.5687C13.4603 20.1187 10.5808 17.7624 8.52395 15.0436C7.28985 13.7749 6.6728 12.1436 6.46712 10.5124C6.46712 9.06235 7.08417 7.79359 8.11259 6.88733C8.52395 6.52483 8.93532 6.34358 9.34668 6.34358H10.3751C10.7865 6.34358 11.1978 6.34358 11.4035 7.06858C11.8149 7.97484 12.8433 10.1499 12.8433 10.3311C13.049 10.5124 13.049 10.8749 12.8433 11.0561C13.049 11.4186 12.8433 11.7811 12.6376 11.9624C12.4319 12.1436 12.2262 12.5061 12.0206 12.6874C11.6092 12.8686 11.4035 13.2311 11.6092 13.5936C12.4319 14.6811 13.4603 15.7686 14.4888 16.6749C15.7229 17.5812 16.957 18.3062 18.3967 18.8499C18.8081 19.0312 19.2195 19.0312 19.4252 18.6687C19.6308 18.3062 20.6593 17.3999 21.0706 17.0374C21.482 16.6749 21.6877 16.6749 22.099 16.8562L25.39 18.3062C25.8013 18.4874 26.2127 18.6687 26.4184 18.8499C26.6241 19.3937 26.6241 20.1187 26.2127 20.6624Z" fill="#84A9C0"/>
</svg>
